<svg xmlns="http://www.w3.org/2000/svg" viewBox="0 0 300 380">
  <rect width="300" height="380" rx="28" fill="#ffd8eb"/>
  <rect x="25" y="25" width="250" height="330" rx="20" fill="#fff7e9"/>
  <text x="150" y="58" text-anchor="middle" font-family="Arial Rounded MT Bold, Arial" font-size="24" fill="#e82e79" font-weight="900">Ave's Adventures</text>
  <text x="150" y="92" text-anchor="middle" font-family="Arial Rounded MT Bold, Arial" font-size="24" fill="#6c3a9b" font-weight="900">Birthday Cake</text>
  <g transform="translate(50 130)">
    <ellipse cx="100" cy="190" rx="92" ry="12" fill="#f4bad2"/>
    <rect x="30" y="110" width="140" height="80" rx="18" fill="#ffd36d"/>
    <path d="M30 120c20 20 25-8 45 10s30-14 50 0 25-8 45-4v20H30z" fill="#ff8fc1"/>
    <rect x="55" y="50" width="90" height="75" rx="18" fill="#ffd36d"/>
    <path d="M55 58c14 16 20-6 35 9s20-8 33-2 13-7 22-5v18H55z" fill="#ff8fc1"/>
    <g fill="#2b1630"><circle cx="80" cy="92" r="10"/><circle cx="120" cy="92" r="10"/></g>
    <path d="M86 112c10 12 22 12 32 0" stroke="#2b1630" stroke-width="6" fill="none" stroke-linecap="round"/>
    <g stroke="#2b1630" stroke-width="4"><line x1="80" y1="35" x2="80" y2="55"/><line x1="100" y1="35" x2="100" y2="55"/><line x1="120" y1="35" x2="120" y2="55"/></g>
  </g>
</svg>
