<svg xmlns="http://www.w3.org/2000/svg" viewBox="0 0 760 360" role="img" aria-label="Ave's Adventures logo">
  <defs>
    <filter id="shadow" x="-20%" y="-20%" width="140%" height="140%">
      <feDropShadow dx="0" dy="8" stdDeviation="5" flood-color="#9b2f6a" flood-opacity="0.25"/>
    </filter>
  </defs>
  <g filter="url(#shadow)">
    <text x="40" y="155" font-family="Arial Rounded MT Bold, Baloo 2, Arial, sans-serif" font-size="126" font-weight="900" fill="#f865a8" stroke="#c32673" stroke-width="10" paint-order="stroke">Ave's</text>
    <text x="95" y="245" font-family="Arial Rounded MT Bold, Baloo 2, Arial, sans-serif" font-size="64" font-weight="900" fill="#6c3a9b">ADVENTURES</text>
    <path d="M78 224l11 22 25 4-18 18 4 25-22-12-22 12 4-25-18-18 25-4z" fill="#ffd65c" stroke="#f59e0b" stroke-width="6"/>
    <path d="M647 224l11 22 25 4-18 18 4 25-22-12-22 12 4-25-18-18 25-4z" fill="#ffd65c" stroke="#f59e0b" stroke-width="6"/>
    <path d="M392 60c30-38 76-6 48 31-15 20-42 34-48 39-6-5-33-19-48-39-28-37 18-69 48-31z" fill="#f865a8" stroke="#c32673" stroke-width="8"/>
  </g>
</svg>
